<svg width="95" height="139" viewBox="0 0 95 139" fill="none" xmlns="http://www.w3.org/2000/svg">
<g clip-path="url(#clip0_406_5661)">
<path d="M82.6 38.6C92 34.4 92.7 13.4 79.9 4.6C73.9 0.4 70 0 59.5 0C58.3 0 48.8 0 40.1 0.1C22.5 0 0 0 0 0V7.7C2.8 7.8 4.9 8.1 6.3 8.7C7.7 9.2 8.6 10.3 9.1 11.7C9.6 13.2 9.8 15.5 9.8 18.6V72.3C9.8 75.4 9.6 77.7 9.1 79.2C8.6 80.7 7.7 81.7 6.3 82.2C4.9 82.7 2.8 83.1 0 83.1V89.6C0 89.6 22.5 89.6 40.1 89.5C48.8 89.6 60.4 89.6 61.6 89.6C72.1 89.6 80.2 87.4 86.2 83.1C92.1 78.8 95 70.6 95 62.9C94.9 46.2 88.2 41.8 82.6 38.6ZM46.3 42.2V42.3C46.5 43 47.5 45.3 51.2 42.9C55.2 40.4 56 40 56.1 39.9C56 40.1 54.3 43.3 53 44.3C51.6 45.4 47.6 44.2 46.5 46.5V46.6C45.3 49.3 43.2 55 44.5 58.9C46.3 64.1 48.8 63.6 48.8 63.6C48.8 63.6 47.4 62.3 47.9 58.9C47.9 58.9 50.6 59.4 54.3 56.2C54.3 56.2 58.4 56.6 62.7 58.6C67.6 60.9 69.6 67 69.2 72.2C68.7 77.7 61.9 83 56.7 83C55.1 83 48.7 83.1 42.3 83.1H27.1V7.7H42.4C48.8 7.7 55.1 7.8 56.8 7.8C70.5 7.8 70.5 14 70.5 16.7C70.5 22.9 62 23.6 55.5 27.1C50.4 29.8 45.2 35.4 46.3 42.2Z" fill="white"/>
</g>
<path d="M0 137.8H2.87991V106.4H0V105.6H13.7139C19.4737 105.6 23.1764 109.2 23.1764 112.9V114.5C23.1764 118.4 19.0623 121.3 15.4967 121.6C19.8851 121.6 23.725 125 23.725 128.9V130.3C23.725 135.6 19.4737 138.5 13.851 138.5H0V137.8ZM12.6168 121.2C15.0852 121.2 16.4566 118.9 16.4566 116.2V112.1C16.4566 109.1 15.9081 106.4 12.4796 106.4H9.18829V121.2H12.6168ZM17.0052 127.3C17.0052 124 15.3595 122 12.891 122H9.32543V137.9H13.4396C16.1824 137.9 17.1423 135.4 17.1423 131.9V127.3H17.0052Z" fill="#1D1D1B"/>
<path d="M24.6852 137.8L33.5992 105.6L34.0106 105.8V105.6H35.1077L46.3531 137.8H49.5073V138.6H36.7534V137.8H39.359L36.2048 128.5H28.3879L25.7823 137.8H28.525V138.6H21.8052V137.8H24.6852ZM36.0677 127.7L31.9535 115.8L28.6622 127.7H36.0677Z" fill="#1D1D1B"/>
<path d="M47.1758 137.8L56.2269 105.6L56.6383 105.8V105.6H57.7354L68.9808 137.8H72.135V138.6H59.3811V137.8H61.9867L58.8325 128.5H51.0156L48.41 137.8H51.1528V138.6H44.2958V137.8H47.1758ZM58.5583 127.7L54.4441 115.8L51.1528 127.7H58.5583Z" fill="#1D1D1B"/>
<path d="M79.9519 106.4C76.5234 106.4 75.0149 106.7 75.0149 112.7H73.9178V105.6H94.0772L79.2662 137.8H88.1802C92.0201 137.8 93.8029 137.6 93.8029 130.1H94.9V138.5H71.7236L86.3974 106.3H79.9519V106.4Z" fill="#1D1D1B"/>
<defs>
<clipPath id="clip0_406_5661">
<rect width="94.9" height="89.6" fill="white"/>
</clipPath>
</defs>
</svg>
